HIERARCHY
ROOT root
{
	OFFSET	0	13.1	24.9
	CHANNELS 6  Xposition Yposition Zposition Xrotation Yrotation Zrotation
	JOINT spine_1
	{
		OFFSET	0	9.99999	0
		CHANNELS 3  Xrotation Yrotation Zrotation
		JOINT spine_2
		{
			OFFSET	0	112	-10
			CHANNELS 3  Xrotation Yrotation Zrotation
			JOINT spine_3
			{
				OFFSET	0	206.5	19.3
				CHANNELS 3  Xrotation Yrotation Zrotation
				JOINT spine_4
				{
					OFFSET	0	110.4	14.6
					CHANNELS 3  Xrotation Yrotation Zrotation
					JOINT neck_1
					{
						OFFSET	0	71.8	-50.3
						CHANNELS 3  Xrotation Yrotation Zrotation
						JOINT neck_2
						{
							OFFSET	0	86.2	-25.8
							CHANNELS 3  Xrotation Yrotation Zrotation
							JOINT head_ee
							{
								OFFSET	0	179.8	-8.7
								CHANNELS 3  Xrotation Yrotation Zrotation
								End Site
								{
									OFFSET	1	0	0
								}
							}
						}
					}
					JOINT left_clavicle
					{
						OFFSET	-43.2	22.4	-70.8
						CHANNELS 3  Xrotation Yrotation Zrotation
						JOINT left_shoulder
						{
							OFFSET	-93.9	-5.79999	48.7
							CHANNELS 3  Xrotation Yrotation Zrotation
							JOINT left_elbow
							{
								OFFSET	-291.4	-30.8	15.2
								CHANNELS 3  Xrotation Yrotation Zrotation
								JOINT left_lowarm_twist
								{
									OFFSET	-110.7	-3.89999	13.6
									CHANNELS 3  Xrotation Yrotation Zrotation
									JOINT left_hand
									{
										OFFSET	-110.7	-3.89999	13.6
										CHANNELS 3  Xrotation Yrotation Zrotation
										JOINT left_ee
										{
											OFFSET	-80.8	-5.10001	12.1
											CHANNELS 3  Xrotation Yrotation Zrotation
											End Site
											{
												OFFSET	1	0	0
											}
										}
									}
								}
							}
						}
					}
					JOINT right_clavicle
					{
						OFFSET	43.2	22.4	-70.8
						CHANNELS 3  Xrotation Yrotation Zrotation
						JOINT right_shoulder
						{
							OFFSET	93.9	-5.79999	48.7
							CHANNELS 3  Xrotation Yrotation Zrotation
							JOINT right_elbow
							{
								OFFSET	291.4	-30.8	15.2
								CHANNELS 3  Xrotation Yrotation Zrotation
								JOINT right_lowarm_twist
								{
									OFFSET	110.7	-3.89999	13.6
									CHANNELS 3  Xrotation Yrotation Zrotation
									JOINT right_hand
									{
										OFFSET	110.7	-3.89999	13.6
										CHANNELS 3  Xrotation Yrotation Zrotation
										JOINT right_ee
										{
											OFFSET	80.8	-5.10001	12.1
											CHANNELS 3  Xrotation Yrotation Zrotation
											End Site
											{
												OFFSET	1	0	0
											}
										}
									}
								}
							}
						}
					}
				}
			}
		}
	}
	JOINT left_hip
	{
		OFFSET	-82.8	-127.5	0.300001
		CHANNELS 3  Xrotation Yrotation Zrotation
		JOINT left_knee
		{
			OFFSET	-28.2	-396.7	2.2
			CHANNELS 3  Xrotation Yrotation Zrotation
			JOINT left_ankle
			{
				OFFSET	-11.7	-411.3	35.4
				CHANNELS 3  Xrotation Yrotation Zrotation
				JOINT left_toes
				{
					OFFSET	0	-60	-88.6
					CHANNELS 3  Xrotation Yrotation Zrotation
					JOINT left_foot_ee
					{
						OFFSET	-22.5	-16.5	-42.2
						CHANNELS 3  Xrotation Yrotation Zrotation
						End Site
						{
							OFFSET	1	0	0
						}
					}
				}
			}
		}
	}
	JOINT right_hip
	{
		OFFSET	82.8	-127.5	0.300001
		CHANNELS 3  Xrotation Yrotation Zrotation
		JOINT right_knee
		{
			OFFSET	28.2	-396.7	2.2
			CHANNELS 3  Xrotation Yrotation Zrotation
			JOINT right_ankle
			{
				OFFSET	11.7	-411.3	35.4
				CHANNELS 3  Xrotation Yrotation Zrotation
				JOINT right_toes
				{
					OFFSET	0	-60	-88.6
					CHANNELS 3  Xrotation Yrotation Zrotation
					JOINT right_foot_ee
					{
						OFFSET	22.5	-16.5	-42.2
						CHANNELS 3  Xrotation Yrotation Zrotation
						End Site
						{
							OFFSET	1	0	0
						}
					}
				}
			}
		}
	}
}
MOTION
Frames: 8
Frame Time: 0.02
3574.42 741.953 -1474.73 -38.1000875746 82.9666478548 34.1125581109 -0.73558 0.351282 2.61358 -0.731799 0.184321 2.63062 -0.720656 -0.40571 2.60569 -0.73013 0.010753 2.63704 -3.00262 11.4371 -7.3693 -2.42592 26.4844 -6.13807 -0.0 0.0 -0.0 -4.32861 17.1205 -4.72307 9.73755 -18.8608 73.7937 3.70221 -61.3817 2.19791 -46.8089 -3.70263 4.50569 2.4861 29.9013 25.8212 -0.0 0.0 -0.0 2.64538 9.05511 -4.37596 -9.46881 34.6153 -71.5618 0.853881 22.9276 -0.173165 -54.2455 4.57702 -4.88632 0.343688 11.6987 2.65539 0.0 0.0 0.0 4.0534 -5.47953 4.14088 -7.39839 0.233163 1.11071 38.6137 25.9508 -5.06351 -31.9784 0.0 0.0 -0.0 0.0 -0.0 8.11056 7.37702 2.66783 -8.26125 -0.250961 -1.24192 24.4881 7.87948 3.37956 0.998303 -0.0 -0.0 0.0 0.0 0.0 
3567.14155979 736.979 -1475.35322398 -31.8535861109 81.9853431573 27.5386377487 -0.70848 0.3514 2.61861 -0.704684 0.184118 2.63565 -0.693552 -0.405793 2.61074 -0.703064 0.0114684 2.64205 -1.86051 11.591 -7.59658 -1.15144 26.9019 -6.66631 -0.0 0.0 -0.0 -4.36916 17.1964 -4.76918 8.6947 -18.4243 73.8235 3.70783 -61.4182 2.20284 -46.7197 -3.69245 4.50044 2.47986 29.5234 25.7138 -0.0 0.0 -0.0 2.596 10.1226 -4.18109 -10.0621 34.8018 -71.2439 0.83857 22.558 -0.167246 -54.1247 4.56244 -4.88105 0.382459 12.4741 2.7261 0.0 0.0 0.0 4.56755 -5.88387 3.98067 -7.96885 0.245151 1.19743 40.0594 26.0366 -5.20853 -31.2155 0.0 0.0 -0.0 0.0 -0.0 7.68095 6.97329 2.76463 -9.3649 -0.270841 -1.4101 25.893 5.7615 3.51414 1.84249 -0.0 -0.0 0.0 0.0 0.0 
3552.47269627 732.002 -1473.11607349 -24.7879118807 81.1279206771 20.3961810214 -0.650454 0.677945 2.55171 -0.646979 0.514255 2.58964 -0.620807 -0.0699772 2.63925 -0.630359 0.347576 2.61721 0.143529 11.0937 -8.3447 1.0697 26.5312 -8.06674 -0.0 0.0 -0.0 -4.33775 17.6112 -4.62344 7.33326 -18.6733 74.4014 3.83202 -62.203 2.31231 -47.8026 -3.81652 4.56307 2.3334 29.8247 24.8839 -0.0 0.0 -0.0 2.16023 9.58374 -3.32796 -11.9244 35.1768 -71.5631 0.84287 22.662 -0.168899 -54.5349 4.61198 -4.89881 0.174671 11.5554 3.73535 0.0 0.0 0.0 5.48584 -6.00349 4.39272 -14.159 0.319481 2.14387 42.9953 25.4112 -5.46071 -29.9566 0.0 0.0 -0.0 0.0 -0.0 6.48223 8.1993 3.5867 -10.733 -0.290981 -1.61905 30.2693 6.17002 4.00791 1.4598 -0.0 -0.0 0.0 0.0 0.0 
3552.44829387 732.002 -1473.49184414 -22.3970835633 80.2292494657 17.9734439016 -0.650454 0.677945 2.55171 -0.646979 0.514255 2.58964 -0.620807 -0.0699772 2.63925 -0.630359 0.347576 2.61721 0.143529 11.0937 -8.3447 1.0697 26.5312 -8.06674 -0.0 0.0 -0.0 -4.33775 17.6112 -4.62344 7.33326 -18.6733 74.4014 3.83202 -62.203 2.31231 -47.8026 -3.81652 4.56307 2.3334 29.8247 24.8839 -0.0 0.0 -0.0 2.16023 9.58374 -3.32796 -11.9244 35.1768 -71.5631 0.84287 22.662 -0.168899 -54.5349 4.61198 -4.89881 0.174671 11.5554 3.73535 0.0 0.0 0.0 5.48584 -6.00349 4.39272 -14.159 0.319481 2.14387 42.9953 25.4112 -5.46071 -29.9566 0.0 0.0 -0.0 0.0 -0.0 6.48223 8.1993 3.5867 -10.733 -0.290981 -1.61905 30.2693 6.17002 4.00791 1.4598 -0.0 -0.0 0.0 0.0 0.0 
3542.55586876 728.066 -1473.30942251 -17.0087585382 79.1678040967 12.6960461703 -0.735965 0.693636 2.45719 -0.732766 0.535923 2.49632 -0.706566 -0.0320391 2.55296 -0.715469 0.371425 2.52602 1.22836 10.9148 -8.65171 2.26962 26.4203 -8.71128 -0.0 0.0 -0.0 -4.48375 18.3935 -4.66553 5.18054 -20.2879 74.3505 3.85086 -62.3186 2.32898 -48.7379 -3.92462 4.61527 2.14554 29.708 23.7363 -0.0 0.0 -0.0 2.40307 10.0573 -3.78714 -13.8084 34.7158 -70.9312 0.81096 21.8865 -0.156804 -55.1833 4.69053 -4.92616 -0.0387671 10.7229 4.82321 0.0 0.0 0.0 6.0975 -8.00021 4.67231 -17.4113 0.317472 2.6428 43.3295 25.8562 -5.50696 -25.3394 0.0 0.0 -0.0 0.0 -0.0 5.64397 8.05969 3.97315 -11.2529 -0.297326 -1.69858 32.013 7.5663 4.21481 2.65161 -0.0 -0.0 0.0 0.0 0.0 
3542.53460253 728.066 -1473.9161647 -15.4891719184 78.1206706835 11.1461857226 -0.735965 0.693636 2.45719 -0.732766 0.535923 2.49632 -0.706566 -0.0320391 2.55296 -0.715469 0.371425 2.52602 1.22836 10.9148 -8.65171 2.26962 26.4203 -8.71128 -0.0 0.0 -0.0 -4.48375 18.3935 -4.66553 5.18054 -20.2879 74.3505 3.85086 -62.3186 2.32898 -48.7379 -3.92462 4.61527 2.14554 29.708 23.7363 -0.0 0.0 -0.0 2.40307 10.0573 -3.78714 -13.8084 34.7158 -70.9312 0.81096 21.8865 -0.156804 -55.1833 4.69053 -4.92616 -0.0387671 10.7229 4.82321 0.0 0.0 0.0 6.0975 -8.00021 4.67231 -17.4113 0.317472 2.6428 43.3295 25.8562 -5.50696 -25.3394 0.0 0.0 -0.0 0.0 -0.0 5.64397 8.05969 3.97315 -11.2529 -0.297326 -1.69858 32.013 7.5663 4.21481 2.65161 -0.0 -0.0 0.0 0.0 0.0 
3542.52448912 728.066 -1474.59852543 -14.0749446741 76.9352388369 9.69785931241 -0.735965 0.693636 2.45719 -0.732766 0.535923 2.49632 -0.706566 -0.0320391 2.55296 -0.715469 0.371425 2.52602 1.22836 10.9148 -8.65171 2.26962 26.4203 -8.71128 -0.0 0.0 -0.0 -4.48375 18.3935 -4.66553 5.18054 -20.2879 74.3505 3.85086 -62.3186 2.32898 -48.7379 -3.92462 4.61527 2.14554 29.708 23.7363 -0.0 0.0 -0.0 2.40307 10.0573 -3.78714 -13.8084 34.7158 -70.9312 0.81096 21.8865 -0.156804 -55.1833 4.69053 -4.92616 -0.0387671 10.7229 4.82321 0.0 0.0 0.0 6.0975 -8.00021 4.67231 -17.4113 0.317472 2.6428 43.3295 25.8562 -5.50696 -25.3394 0.0 0.0 -0.0 0.0 -0.0 5.64397 8.05969 3.97315 -11.2529 -0.297326 -1.69858 32.013 7.5663 4.21481 2.65161 -0.0 -0.0 0.0 0.0 0.0 
3532.79560686 723.341 -1480.69352208 -10.8247382269 76.1739598937 6.37610812662 -0.790342 0.695535 2.50334 -0.787014 0.534884 2.54249 -0.760279 -0.0457524 2.59771 -0.76951 0.364943 2.57237 3.2751 11.0384 -9.01916 4.5647 26.8381 -9.67795 -0.0 0.0 -0.0 -4.66968 18.5341 -4.9176 4.27631 -19.8229 74.3461 3.6705 -61.1743 2.1701 -48.9322 -3.94718 4.6259 2.01358 29.67 22.9454 -0.0 0.0 -0.0 2.4387 10.3092 -3.83836 -14.8003 34.838 -70.9731 0.792495 21.4338 -0.149988 -55.7787 4.76293 -4.95049 -0.00192722 10.9258 4.66051 0.0 0.0 0.0 6.52549 -7.45803 4.87579 -20.7691 0.285703 3.15695 43.4491 25.6856 -5.51135 -25.3663 0.0 0.0 -0.0 0.0 -0.0 5.00547 7.76029 4.02307 -12.6442 -0.31075 -1.91162 34.0937 6.83139 4.41364 1.75744 -0.0 -0.0 0.0 0.0 0.0 
